<svg width="73" height="73" viewBox="0 0 73 73" fill="none" xmlns="http://www.w3.org/2000/svg">
<path d="M72.9375 69.1374L52.6415 48.8414C57.5187 42.9861 59.9509 35.476 59.4319 27.8732C58.9129 20.2705 55.4829 13.1605 49.8552 8.0223C44.2275 2.88414 36.8356 0.113413 29.2171 0.286519C21.5986 0.459625 14.3402 3.56323 8.95172 8.9517C3.56325 14.3402 0.45964 21.5986 0.286534 29.2171C0.113428 36.8356 2.88415 44.2275 8.02231 49.8552C13.1605 55.4828 20.2705 58.9129 27.8732 59.4319C35.476 59.9508 42.9861 57.5187 48.8414 52.6415L69.1374 72.9375L72.9375 69.1374ZM5.74999 29.9375C5.74999 25.1536 7.16856 20.4772 9.82632 16.4996C12.4841 12.522 16.2616 9.42183 20.6813 7.59114C25.101 5.76044 29.9643 5.28145 34.6562 6.21473C39.3482 7.14801 43.658 9.45165 47.0406 12.8343C50.4233 16.217 52.727 20.5268 53.6602 25.2187C54.5935 29.9106 54.1145 34.7739 52.2838 39.1936C50.4531 43.6133 47.353 47.3909 43.3753 50.0486C39.3977 52.7064 34.7213 54.125 29.9375 54.125C23.5247 54.1179 17.3767 51.5673 12.8422 47.0328C8.30771 42.4983 5.7571 36.3502 5.74999 29.9375V29.9375Z" fill="#D4D4D4"/>
</svg>
